<?xml version="1.0" encoding="utf-8"?>
<!-- Generator: Adobe Illustrator 21.1.0, SVG Export Plug-In . SVG Version: 6.00 Build 0)  -->
<svg version="1.1" id="Layer_1" xmlns="http://www.w3.org/2000/svg" xmlns:xlink="http://www.w3.org/1999/xlink" x="0px" y="0px"
	 viewBox="0 0 792 300" style="enable-background:new 0 0 792 300;" xml:space="preserve">
<style type="text/css">
	.st0{fill:#FFFFFF;}
</style>
<rect x="348.7" y="168.5" class="st0" width="417.5" height="4.9"/>
<g>
	<path class="st0" d="M146.7,113.3c-3-1.6-7.4-3.6-12.9-5.5c0,11-1.1,24-5.4,38.5c-2.7,9.1-7.6,22.3-17,36.6
		c-4.4-4.6-8.9-9.3-13.3-13.9c2.3-3.6,5.3-8.6,8-15c3.8-9,5.2-16.6,6.6-24c0,0,1.5-7.9,2.2-15.2c0.3-3.6,0.5-7.4,0.4-11.3
		c-4.4-0.6-9.1-0.8-14.1-0.7c-17.3,0.5-30.5,5.7-37.9,9.3c-3.7-4.1-7.4-8.2-11-12.3c9.3-4.7,29.8-13.5,56.9-12.2
		c1.8,0.1,3.5,0.2,5.2,0.4c-1.7-16.7-5.3-31.5-6-34.5c6.2,0.3,12.4,0.6,18.6,0.9c2.3,8.5,5,20.8,6.1,35.9c0,0.3,0.1,0.7,0.1,1
		c11.9,3.2,20.9,7.7,26.5,10.8C155.3,106,151,109.7,146.7,113.3z"/>
</g>
<g>
	<path class="st0" d="M15.3,134.3c6.7-18.2,22.3-27.5,28.9-31c3.8,4,7.6,8.1,11.3,12.2c-3.7,2.2-7.6,4.9-11.4,8.2l21.9,21.9
		c-2,1.2-4.4,3-6.8,5.5c-2.1,2.1-3.6,4.3-4.8,6.1c-7-7-14-14-21-21"/>
</g>
<g>
	<path class="st0" d="M78.9,158.5l49.8,49.8L117,219.9l-49.8-49.8c0.8-1.7,2.3-4.2,4.7-6.7C74.5,160.9,77.1,159.4,78.9,158.5z"/>
</g>
<g>
	<path class="st0" d="M204.2,119.2v18.2h-6.8V75.9h6.8v40.6l16.1-16.7h8.9l-17.6,17.7l19,19.8h-9.5L204.2,119.2z"/>
	<path class="st0" d="M245.6,83.1c2.5,0,4.6,2.1,4.6,4.6c0,2.5-2.1,4.6-4.6,4.6s-4.6-2.1-4.6-4.6C240.9,85.2,243.1,83.1,245.6,83.1z
		 M242.2,99.8h6.8v37.6h-6.8V99.8z"/>
	<path class="st0" d="M287.8,99.8l-2.5,6.2c0,0-1.5-0.8-4.3-0.8c-5.9,0-8.6,6.3-8.6,6.3v25.9h-6.8V99.8h6.3v5.8
		c0,0,3.3-6.8,10.5-6.8C285.4,98.8,287.8,99.8,287.8,99.8z"/>
	<path class="st0" d="M306.3,119.2v18.2h-6.8V75.9h6.8v40.6l16.1-16.7h8.9l-17.6,17.7l19,19.8h-9.5L306.3,119.2z"/>
	<path class="st0" d="M349.3,99.8v5.4c0,0,3.7-6.4,12.7-6.4c10.2,0,18.2,8.7,18.2,19.8c0,11.1-8.1,19.8-18.2,19.8
		c-6.9,0-10.8-3.9-12.1-5.6v23.3h-6.8V99.8H349.3z M349.9,125.6c0,0,3.6,6.4,11.1,6.4c7.6,0,12.4-6,12.4-13.4s-4.8-13.4-12.4-13.4
		c-7.5,0-11.1,6.4-11.1,6.4V125.6z"/>
	<path class="st0" d="M427.5,99.8v37.6h-6.3v-5.4c0,0-3.7,6.4-12.9,6.4c-10,0-18.1-8.7-18.1-19.8c0-11.1,8.1-19.8,18.1-19.8
		c9.2,0,12.9,6.4,12.9,6.4v-5.4H427.5z M420.7,111.5c0,0-3.7-6.3-11-6.3c-7.6,0-12.5,6-12.5,13.4S402,132,409.7,132
		c7.3,0,11-6.3,11-6.3V111.5z"/>
	<path class="st0" d="M439.5,99.8h7.3V88.3h6.8v11.5h11.7v6.2h-11.7v20.3c0,3.7,1.8,5.8,5.4,5.8c2.1,0,4.3-1.5,4.3-1.5l2.5,5.6
		c-3.3,1.8-5.6,2.3-7.8,2.3c-5.4,0-11.3-3.5-11.3-11.8V106h-7.3V99.8z"/>
	<path class="st0" d="M500.5,99.8L498,106c0,0-1.5-0.8-4.3-0.8c-5.9,0-8.6,6.3-8.6,6.3v25.9h-6.8V99.8h6.3v5.8c0,0,3.3-6.8,10.5-6.8
		C498.2,98.8,500.5,99.8,500.5,99.8z"/>
	<path class="st0" d="M515.4,83.1c2.5,0,4.6,2.1,4.6,4.6c0,2.5-2.1,4.6-4.6,4.6s-4.6-2.1-4.6-4.6C510.8,85.2,512.9,83.1,515.4,83.1z
		 M512,99.8h6.8v37.6H512V99.8z"/>
	<path class="st0" d="M567.4,131.1c0,0-5.4,7.2-15.4,7.2c-11.1,0-19.4-8.7-19.4-19.8c0-11,8.3-19.8,19.4-19.8c9.6,0,15,6.8,15,6.8
		l-4.6,4.1c0,0-3.7-4.6-10.3-4.6c-7.6,0-12.5,6-12.5,13.4s5,13.4,12.5,13.4c7.3,0,11-5.4,11-5.4L567.4,131.1z"/>
	<path class="st0" d="M587.3,119.2v18.2h-6.8V75.9h6.8v40.6l16.1-16.7h8.9l-17.6,17.7l19,19.8h-9.5L587.3,119.2z"/>
	<path class="st0" d="M620.8,99.8h7.3V88.3h6.8v11.5h11.7v6.2h-11.7v20.3c0,3.7,1.8,5.8,5.4,5.8c2.1,0,4.3-1.5,4.3-1.5l2.5,5.6
		c-3.3,1.8-5.6,2.3-7.8,2.3c-5.4,0-11.3-3.5-11.3-11.8V106h-7.3V99.8z"/>
	<path class="st0" d="M664.1,83.1c2.5,0,4.6,2.1,4.6,4.6c0,2.5-2.1,4.6-4.6,4.6s-4.6-2.1-4.6-4.6C659.5,85.2,661.6,83.1,664.1,83.1z
		 M660.7,99.8h6.8v37.6h-6.8V99.8z"/>
	<path class="st0" d="M716.1,113.2v24.2h-6.8v-23c0-6.4-4-9.2-9-9.2c-6.1,0-9.4,6.3-9.4,6.3v25.9h-6.8V99.8h6.3v5.3
		c0,0,3.4-6.3,11.5-6.3C709.4,98.8,716.1,103.9,716.1,113.2z"/>
	<path class="st0" d="M759.1,132.7c-1.3,1.7-5.2,5.7-12.1,5.7c-10.2,0-18.2-8.7-18.2-19.8c0-11.1,8.1-19.8,18.2-19.8
		c9,0,12.7,6.4,12.7,6.4v-5.4h6.3v37.7c0,13-8.9,19.5-19.8,19.5c-10.3,0-16.4-7.2-16.4-7.2l4.1-5.1c0,0,4.6,5.9,12.3,5.9
		c8,0,12.9-4.4,12.9-12.9V132.7z M759.1,111.5c0,0-3.7-6.3-11.1-6.3c-7.6,0-12.4,6-12.4,13.4s4.8,13.4,12.4,13.4
		c7.5,0,11.1-6.3,11.1-6.3V111.5z"/>
</g>
<g>
	<path class="st0" d="M573.2,208c0,0-2.6-3.3-7.8-3.3c-6.2,0-10.4,5.4-10.4,11.5s4.2,11.5,10.4,11.5c5.2,0,8.2-3.8,8.2-3.8l2.3,2.4
		c0,0-3.9,4.7-10.5,4.7c-8.2,0-14.1-6.5-14.1-14.7s5.9-14.7,14.1-14.7c6.7,0,10.2,4.4,10.2,4.4L573.2,208z"/>
	<path class="st0" d="M586.1,201.9h7.4c5.7,0,9.5,3.3,9.5,8.4c0,6.8-6.1,8-7,8.1l7.9,11.9h-4.1l-7.7-11.6h-2.6v11.6h-3.4V201.9z
		 M599.6,210.3c0-3.1-2.1-5.2-5.9-5.2h-4.2v10.3h4.2C597.6,215.5,599.6,213.5,599.6,210.3z"/>
	<path class="st0" d="M618.1,214.2h12v3.3h-12v9.7h13.3v3.3h-16.7v-28.5h16.4v3.3h-13V214.2z"/>
	<path class="st0" d="M651.1,201.9h3.2l11.1,28.5h-3.6l-3-7.7h-12.3l-3,7.7h-3.7L651.1,201.9z M647.8,219.5h9.8l-4.9-12.6
		L647.8,219.5z"/>
	<path class="st0" d="M679.1,205.2h-8.2v-3.3h19.8v3.3h-8.2v25.2h-3.4V205.2z"/>
	<path class="st0" d="M701.3,201.9h3.4v28.5h-3.4V201.9z"/>
	<path class="st0" d="M726.7,231.2l-11.9-29.3h3.7l8.2,20.9l8.3-20.9h3.5L726.7,231.2z"/>
	<path class="st0" d="M751.6,214.2h12v3.3h-12v9.7h13.3v3.3h-16.7v-28.5h16.4v3.3h-13V214.2z"/>
</g>
</svg>
